<svg width="1920" height="921" viewBox="0 0 1920 921" fill="none" xmlns="http://www.w3.org/2000/svg">
<path d="M326.403 559.293C369.027 559.293 403.971 594.006 403.971 637.207H494.211C494.211 544.249 418.947 468.648 326.403 468.648C233.859 468.648 158.979 544.249 158.979 637.207H249.219C249.219 594.394 284.163 559.293 326.403 559.293Z" fill="#242424"/>
<path d="M867.459 439.337C954.626 439.337 1025.67 367.979 1025.67 280.42C1025.67 237.605 1009.16 197.876 979.205 167.789L915.845 232.204C928.518 244.933 935.812 261.905 935.812 280.42C935.812 317.835 905.092 348.692 867.845 348.692C830.598 348.692 799.878 318.221 799.878 280.42C799.878 275.791 799.878 270.777 799.878 266.148C799.878 261.52 799.878 256.891 799.878 251.877C799.492 119.574 691.972 11.5723 560.259 11.5723C444.293 11.5723 347.525 94.8882 325.637 205.204C325.637 205.204 325.637 205.204 325.253 205.204C245.765 205.204 169.733 235.29 110.981 289.291C52.9966 342.907 16.9005 415.808 9.60446 494.495L9.22046 496.423V636.824H99.4606V500.665C105.221 445.123 130.949 393.822 172.037 355.635C213.893 317.063 268.421 295.849 325.253 295.849C345.605 405.008 439.301 488.324 552.965 491.795V636.824H643.205V442.808C643.205 429.308 637.059 416.58 626.692 407.708C616.325 399.222 602.499 395.751 589.445 398.065C579.845 399.993 569.859 400.765 560.259 400.765C478.085 400.765 411.653 333.649 411.653 251.105C411.653 168.561 478.469 101.445 560.259 101.445C642.438 101.445 709.252 168.561 709.252 251.105C709.252 256.12 709.252 260.748 709.252 265.762C709.252 270.391 709.252 275.02 709.252 279.648C709.252 367.979 780.292 439.337 867.459 439.337Z" fill="#242424"/>
<path d="M883.586 188.616C913.925 188.616 938.113 163.93 938.113 133.844C938.113 103.758 913.539 79.0713 883.586 79.0713C853.633 79.0713 829.059 103.758 829.059 133.844C829.059 163.93 853.633 188.616 883.586 188.616Z" fill="#242424"/>
<path d="M809.087 601.727L786.047 592.857C782.974 591.698 780.287 590.156 777.981 588.613C775.68 587.071 774.908 585.141 774.908 582.44C774.908 579.355 776.061 577.042 778.367 575.112C780.668 573.182 784.127 572.411 788.348 572.411C793.341 572.411 797.948 573.953 802.174 577.425C806.014 580.514 809.468 584.753 811.774 589.384L848.64 566.242C845.567 560.839 842.108 555.825 837.501 551.198C833.28 546.955 828.287 543.099 822.908 540.01C817.534 536.926 811.774 534.612 805.628 533.07C799.487 531.528 793.341 530.752 786.814 530.752C778.367 530.752 770.301 531.911 763.388 534.612C756.48 537.314 749.948 541.169 744.574 545.796C739.2 550.427 735.36 556.213 732.287 562.769C729.214 569.326 728.061 576.654 728.061 584.753C728.061 591.315 729.214 597.1 731.134 602.498C733.054 607.512 736.127 612.139 739.581 616.382C743.421 620.626 747.647 624.098 752.64 627.183C757.628 630.272 763.388 632.968 769.534 634.899L789.887 642.226C794.494 643.769 797.948 645.699 799.868 647.241C801.788 649.171 802.941 651.101 802.941 653.798C802.941 657.27 801.407 659.971 798.334 661.513C795.261 663.056 791.807 664.215 787.581 664.215C781.821 664.215 776.061 662.285 770.687 658.812C765.308 655.34 761.468 650.325 758.781 643.769L721.148 666.14C724.221 672.702 728.061 678.487 732.668 683.502C737.28 688.516 742.654 692.755 748.414 696.227C754.174 699.7 760.32 702.013 766.847 703.943C773.374 705.873 780.287 706.645 787.2 706.645C795.261 706.645 802.941 705.485 810.621 702.784C818.301 700.471 824.828 696.615 830.588 691.984C836.348 687.357 840.96 681.572 844.8 674.627C848.254 667.687 850.174 659.971 850.174 651.101C850.174 639.525 846.72 629.501 840.188 621.397C833.661 613.298 823.294 606.741 809.087 601.727Z" fill="#242424"/>
<path d="M994.179 617.154C997.252 609.826 999.172 601.722 999.172 592.469C999.172 583.211 997.638 575.107 994.179 567.779C991.106 560.452 986.499 554.283 980.358 549.268C974.598 544.254 967.299 540.393 959.238 538.08C951.172 535.379 941.958 534.225 932.358 534.225H872.066V703.555H917.379V650.709H932.739C942.339 650.709 951.558 649.554 959.619 646.853C967.685 644.152 974.979 640.296 980.739 635.67C986.499 630.267 991.106 624.482 994.179 617.154ZM947.718 605.966C943.878 609.055 939.266 610.98 933.125 610.98H916.998V574.724H933.125C938.885 574.724 943.878 576.266 947.718 579.739C951.558 582.823 953.478 587.455 953.478 592.852C953.478 598.255 951.558 602.881 947.718 605.966Z" fill="#242424"/>
<path d="M1114.37 640.684C1123.58 636.053 1130.88 629.496 1136.64 621.397C1142.4 613.298 1145.09 603.269 1145.09 591.698C1145.09 582.44 1143.55 574.336 1140.09 567.396C1137.02 560.452 1132.41 554.283 1126.65 549.268C1120.89 544.254 1113.98 540.781 1105.53 538.08C1097.47 535.767 1088.64 534.225 1078.65 534.225H1018.37V703.555H1063.68V647.624H1069.05L1104.38 703.555H1157.37L1114.37 640.684ZM1094.01 605.966C1090.17 609.055 1085.57 610.98 1079.81 610.98H1063.68V574.724H1079.42C1085.18 574.724 1089.79 576.266 1093.63 579.739C1097.47 582.823 1099.39 587.455 1099.39 592.852C1099.39 598.255 1097.85 602.881 1094.01 605.966Z" fill="#242424"/>
<path d="M1216.9 703.555H1262.59V631.426L1322.11 534.225H1271.43L1239.94 588.609L1208.83 534.225H1157.38L1216.9 631.426V703.555Z" fill="#242424"/>
<path d="M776.061 839.332H827.515V799.603H776.061V776.461H833.275V735.185H730.748V904.516H833.661V863.633H776.061V839.332Z" fill="#242424"/>
<path d="M904.325 735.185H859.012V904.516H961.925V861.703H904.325V735.185Z" fill="#242424"/>
<path d="M1027.97 839.332H1079.42V799.603H1027.97V776.461H1085.18V735.185H982.654V904.516H1085.57V863.633H1027.97V839.332Z" fill="#242424"/>
<path d="M1219.2 750.616C1213.44 745.602 1206.14 741.746 1198.08 739.433C1190.01 736.732 1180.8 735.573 1171.2 735.573H1110.91V904.904H1156.22V852.062H1171.58C1181.18 852.062 1190.4 850.903 1198.46 848.206C1206.53 845.505 1213.82 841.65 1219.58 837.018C1225.34 832.004 1229.95 825.835 1233.41 818.89C1236.48 811.562 1238.4 803.463 1238.4 794.205C1238.4 784.947 1236.86 776.848 1233.41 769.516C1229.95 761.805 1225.34 755.631 1219.2 750.616ZM1186.56 807.319C1182.72 810.403 1178.11 812.333 1171.97 812.333H1155.84V776.077H1171.97C1177.73 776.077 1182.72 777.619 1186.56 781.092C1190.4 784.176 1192.32 788.803 1192.32 794.205C1192.32 799.603 1190.4 803.846 1186.56 807.319Z" fill="#242424"/>
<path d="M1356.29 797.285H1303.3V735.185H1257.6V904.516H1303.3V840.874H1356.29V904.516H1401.99V735.185H1356.29V797.285Z" fill="#242424"/>
<path d="M1485.7 735.185L1418.88 904.516H1464.96L1475.71 875.588H1535.62L1546.37 904.516H1593.6L1526.79 735.185H1485.7ZM1489.15 837.789L1506.05 791.499L1522.95 837.789H1489.15Z" fill="#242424"/>
<path d="M1721.86 832.387L1656.97 735.185H1610.5V904.516H1654.66V808.473L1719.94 904.516H1765.63V735.185H1721.86V832.387Z" fill="#242424"/>
<path d="M1785.21 735.185V778.003H1827.07V904.516H1872.38V778.003H1913.85V735.185H1785.21Z" fill="#242424"/>
<path d="M639.746 683.497H6.14697V774.137H639.746V683.497Z" fill="#242424"/>
<path d="M639.746 818.88H6.14697V909.525H639.746V818.88Z" fill="#242424"/>
</svg>
