<svg width="173" height="45" viewBox="0 0 173 45" fill="none" xmlns="http://www.w3.org/2000/svg">
<path d="M124.238 18.3256C124.238 17.6588 124.524 17.0915 125.099 16.6245C125.673 16.1579 126.477 15.9241 127.509 15.9241C128.428 15.9241 129.336 16.1006 130.236 16.4528C131.135 16.8058 132.043 17.3161 132.962 17.9829L134.856 15.3236C133.823 14.5041 132.718 13.8797 131.541 13.451C130.365 13.0221 129.04 12.8074 127.567 12.8074C126.572 12.8074 125.654 12.9462 124.817 13.2225C123.976 13.499 123.257 13.8941 122.66 14.409C122.062 14.9236 121.593 15.538 121.249 16.253C120.909 16.9677 120.737 17.7636 120.737 18.64C120.737 19.5741 120.885 20.3654 121.182 21.0134C121.478 21.6613 121.914 22.2141 122.478 22.672C123.043 23.1287 123.746 23.51 124.578 23.815C125.415 24.1202 126.366 24.3965 127.442 24.6445C128.38 24.8732 129.141 25.092 129.729 25.3016C130.312 25.5115 130.772 25.7354 131.111 25.9737C131.446 26.2121 131.676 26.4736 131.8 26.7598C131.924 27.0457 131.986 27.3698 131.986 27.732C131.986 28.5135 131.666 29.133 131.025 29.5904C130.385 30.0478 129.519 30.2767 128.428 30.2767C127.165 30.2767 126.037 30.0528 125.042 29.6044C124.047 29.1569 123.061 28.5135 122.086 27.6748L119.962 30.1909C121.167 31.277 122.478 32.0824 123.894 32.6066C125.31 33.1311 126.792 33.3932 128.342 33.3932C129.394 33.3932 130.36 33.2598 131.24 32.9923C132.115 32.7257 132.871 32.3347 133.493 31.8206C134.119 31.3057 134.607 30.6768 134.961 29.9335C135.311 29.1902 135.487 28.3423 135.487 27.3889C135.487 26.5502 135.348 25.8213 135.072 25.2019C134.794 24.5822 134.383 24.0391 133.847 23.5723C133.312 23.1052 132.632 22.7095 131.819 22.3858C131.005 22.0615 130.068 21.7657 129.016 21.4993C128.055 21.2708 127.265 21.0516 126.639 20.8417C126.017 20.6321 125.529 20.4032 125.171 20.1558C124.817 19.9076 124.573 19.641 124.439 19.3548C124.305 19.0693 124.238 18.7257 124.238 18.3256ZM89.8241 19.8842C89.8241 20.975 89.4364 21.8519 88.6572 22.5097C87.8819 23.1719 86.8204 23.5008 85.4767 23.5008H81.3586V16.2671H85.4767C86.8013 16.2671 87.8577 16.5675 88.6431 17.1726C89.4319 17.773 89.8241 18.6784 89.8241 19.8842ZM93.4114 19.8126C93.4114 18.7832 93.2339 17.8588 92.8801 17.0391C92.5262 16.2195 92.0192 15.5143 91.3594 14.9236C90.6996 14.3324 89.8956 13.8797 88.9491 13.5652C88.0019 13.251 86.945 13.0936 85.7781 13.0936H77.8575V33.107H81.3586V26.6743H85.3572C86.4711 26.6743 87.514 26.5261 88.4944 26.2311C89.4702 25.9358 90.3216 25.5021 91.0535 24.93C91.7803 24.3584 92.3544 23.6435 92.7804 22.786C93.2012 21.928 93.4114 20.9369 93.4114 19.8126ZM62.0528 28.4754L55.998 13.0936H52.0953L60.4461 33.25H63.5454L71.8964 13.0936H68.0798L62.0528 28.4754ZM42.4502 12.9508H39.1781L30.3398 33.107H33.9559C37.3646 25.1352 37.0816 25.6979 40.7571 17.1536C44.0546 24.7566 44.5925 26.0731 47.5582 33.107H51.2889L42.4502 12.9508ZM22.0045 26.9315L11.2666 13.0936H8V33.107H11.5007V18.8689L22.554 33.107H25.5054V13.0936H22.0045V26.9315ZM109.141 25.1589H102.225L105.668 17.1536L109.141 25.1589ZM100.933 28.275H110.432L112.469 33.107H116.2L107.361 12.9508H104.089L95.251 33.107H98.8665L100.933 28.275ZM144.835 18.3256C144.835 17.6588 145.121 17.0915 145.696 16.6245C146.27 16.1579 147.074 15.9241 148.107 15.9241C149.025 15.9241 149.933 16.1006 150.833 16.4528C151.732 16.8058 152.64 17.3161 153.559 17.9829L155.453 15.3236C154.42 14.5041 153.315 13.8797 152.138 13.451C150.961 13.0221 149.637 12.8074 148.164 12.8074C147.169 12.8074 146.251 12.9462 145.414 13.2225C144.572 13.499 143.855 13.8941 143.257 14.409C142.659 14.9236 142.19 15.538 141.846 16.253C141.506 16.9677 141.334 17.7636 141.334 18.64C141.334 19.5741 141.482 20.3654 141.779 21.0134C142.076 21.6613 142.511 22.2141 143.075 22.672C143.639 23.1287 144.342 23.51 145.175 23.815C146.012 24.1202 146.963 24.3965 148.039 24.6445C148.977 24.8732 149.738 25.092 150.325 25.3016C150.91 25.5115 151.369 25.7354 151.708 25.9737C152.043 26.2121 152.272 26.4736 152.396 26.7598C152.521 27.0457 152.583 27.3698 152.583 27.732C152.583 28.5135 152.262 29.133 151.622 29.5904C150.981 30.0478 150.115 30.2767 149.025 30.2767C147.762 30.2767 146.634 30.0528 145.638 29.6044C144.643 29.1569 143.658 28.5135 142.683 27.6748L140.559 30.1909C141.764 31.277 143.075 32.0824 144.491 32.6066C145.907 33.1311 147.389 33.3932 148.939 33.3932C149.991 33.3932 150.957 33.2598 151.837 32.9923C152.713 32.7257 153.468 32.3347 154.09 31.8206C154.716 31.3057 155.205 30.6768 155.558 29.9335C155.908 29.1902 156.084 28.3423 156.084 27.3889C156.084 26.5502 155.945 25.8213 155.668 25.2019C155.391 24.5822 154.979 24.0391 154.444 23.5723C153.909 23.1052 153.229 22.7095 152.416 22.3858C151.603 22.0615 150.665 21.7657 149.613 21.4993C148.652 21.2708 147.862 21.0516 147.236 20.8417C146.614 20.6321 146.126 20.4032 145.768 20.1558C145.414 19.9076 145.17 19.641 145.036 19.3548C144.901 19.0693 144.835 18.7257 144.835 18.3256Z" fill="#090909"/>
<path d="M164.484 12.4686V15.2937H165V11.6069H164.448L163.138 13.6297L161.817 11.6069H161.252V15.2937H161.78V12.4686L163.09 14.4679H163.162L164.484 12.4686ZM159.245 12.1097H160.435V11.6069H157.527V12.1097H158.717V15.2937H159.245V12.1097Z" fill="#090909"/>
<path d="M40.763 21.2282C42.4621 25.1818 44.1386 29.1406 45.8117 33.1068H35.707C37.3977 29.1491 39.073 25.1855 40.763 21.2282Z" fill="#DDDDDD"/>
</svg>
