<svg width="421" height="45" viewBox="0 0 421 45" fill="none" xmlns="http://www.w3.org/2000/svg">
<path d="M10.0892 7.93632H8V29.645H10.0892V7.93632Z" fill="#090909"/>
<path d="M37.0379 26.3203L23.8565 7.93632H21.632V29.645H23.7363V11.2611L36.8876 29.645H39.112V7.93632H37.0379V26.3203Z" fill="#090909"/>
<path d="M57.3587 27.2981L49.7987 7.93632H47.5441L56.2015 29.645H58.3958L67.1133 7.93632H64.8888L57.3587 27.2981Z" fill="#090909"/>
<path d="M77.6192 7.93632H75.5301V29.645H77.6192V7.93632Z" fill="#090909"/>
<path d="M86.1562 9.86545H93.1752V29.6635H95.2642V9.86545H102.283V7.90972H86.1562V9.86545Z" fill="#090909"/>
<path d="M112.91 19.5504H123.762V17.6247H112.91V9.86197H125.039V7.93632H110.821V29.645H125.43V27.7194H112.91V19.5504Z" fill="#090909"/>
<path d="M149.508 9.36551C147.839 8.41774 145.991 7.93632 143.962 7.93632H135.425V29.645H143.902C145.946 29.645 147.809 29.1636 149.493 28.2158C151.176 27.268 152.499 25.9592 153.461 24.3043C154.423 22.6495 154.903 20.8141 154.903 18.8132C154.903 16.8123 154.423 14.9619 153.461 13.3071C152.499 11.6372 151.176 10.3283 149.508 9.38056V9.36551ZM151.597 23.3265C150.815 24.6804 149.764 25.7486 148.425 26.5459C147.088 27.3282 145.615 27.7194 144.022 27.7194H137.529V9.86197H143.932C145.555 9.86197 147.028 10.2531 148.38 11.0505C149.733 11.8327 150.8 12.9159 151.582 14.2849C152.379 15.6539 152.769 17.1583 152.769 18.8132C152.769 20.4681 152.379 21.9725 151.597 23.3265Z" fill="#090909"/>
<path d="M207.299 9.08166C205.57 8.10379 203.646 7.62238 201.542 7.62238C199.438 7.62238 197.514 8.10379 195.786 9.08166C194.057 10.0595 192.69 11.3985 191.697 13.0834C190.705 14.7834 190.209 16.6639 190.209 18.74C190.209 20.8161 190.705 22.6966 191.697 24.4117C192.69 26.1266 194.057 27.4656 195.786 28.4585C197.514 29.4514 199.438 29.9479 201.542 29.9479C203.646 29.9479 205.57 29.4514 207.299 28.4585C209.027 27.4656 210.395 26.1116 211.387 24.4117C212.379 22.6966 212.875 20.8161 212.875 18.74C212.875 16.6639 212.379 14.7834 211.387 13.0834C210.395 11.3834 209.027 10.0445 207.299 9.08166ZM207.764 22.501C207.133 23.6443 206.261 24.547 205.164 25.2089C204.067 25.8709 202.88 26.2019 201.617 26.2019C200.355 26.2019 199.123 25.8709 198.025 25.2089C196.913 24.547 196.041 23.6443 195.38 22.501C194.719 21.3577 194.388 20.109 194.388 18.74C194.388 17.371 194.719 16.1223 195.365 14.994C196.011 13.8657 196.898 12.9781 198.01 12.3162C199.123 11.6693 200.325 11.3383 201.617 11.3383C202.91 11.3383 204.082 11.6693 205.164 12.3162C206.261 12.9631 207.118 13.8657 207.764 14.994C208.396 16.1223 208.726 17.371 208.726 18.74C208.726 20.109 208.411 21.3577 207.764 22.501Z" fill="#090909"/>
<path d="M233.015 21.9158L225.966 7.90972H221.321V29.6635H225.019V14.0628L231.677 27.4219H234.293L240.906 14.0628V29.6635H244.648V7.90972H240.004L233.015 21.9158Z" fill="#090909"/>
<path d="M258.807 26.0228V20.5618H269.132V16.9211H258.807V11.5504H270.32V7.90972H254.733V29.6635H270.681V26.0228H258.807Z" fill="#090909"/>
<path d="M179.207 17.207H172.67V20.8477H179.207V29.6786H183.281V7.90972H179.207V17.207Z" fill="#090909"/>
<path d="M168.596 7.90972H164.523V29.6786H168.596V7.90972Z" fill="#090909"/>
<path d="M183.28 33.8443H164.523V37.5H183.28V33.8443Z" fill="#090909"/>
<path d="M288.221 13.2168C288.912 12.5247 289.738 11.9982 290.685 11.6221C291.633 11.246 292.669 11.0655 293.812 11.0655C294.954 11.0655 296.006 11.2761 296.983 11.6973C297.96 12.1185 298.847 12.7654 299.629 13.6079L302.244 11.1407C301.221 9.93715 299.974 9.0345 298.501 8.41769C297.028 7.80088 295.405 7.5 293.616 7.5C291.933 7.5 290.385 7.77079 288.972 8.32743C287.56 8.88406 286.327 9.65131 285.275 10.6593C284.222 11.6672 283.396 12.8557 282.81 14.2247C282.224 15.5937 281.938 17.0981 281.938 18.7079C281.938 20.3176 282.224 21.822 282.81 23.191C283.396 24.5601 284.207 25.7485 285.26 26.7565C286.312 27.7645 287.544 28.5468 288.957 29.0884C290.385 29.6449 291.918 29.9157 293.586 29.9157C295.39 29.9157 297.028 29.5998 298.501 28.983C299.974 28.3662 301.221 27.4485 302.244 26.275L299.629 23.7778C298.832 24.6503 297.96 25.2972 296.983 25.7185C296.006 26.1396 294.954 26.3503 293.812 26.3503C292.669 26.3503 291.633 26.1698 290.685 25.7937C289.738 25.4176 288.927 24.891 288.221 24.199C287.514 23.507 286.988 22.7096 286.597 21.7618C286.206 20.8291 286.026 19.8061 286.026 18.6778C286.026 17.5495 286.221 16.5265 286.597 15.5937C286.973 14.661 287.514 13.8486 288.221 13.1566V13.2168Z" fill="#090909"/>
<path d="M323.181 22.3634C324.563 21.7466 325.63 20.8741 326.367 19.7157C327.118 18.5573 327.494 17.1882 327.494 15.5936C327.494 13.9989 327.118 12.6149 326.367 11.4565C325.615 10.2981 324.548 9.39541 323.181 8.7786C321.797 8.16179 320.144 7.84587 318.22 7.84587H309.263V29.6599H313.306V23.2962H318.22C318.506 23.2962 318.792 23.2811 319.062 23.2661L323.511 29.6599H327.87L322.865 22.4988C322.97 22.4537 323.09 22.4236 323.196 22.3785L323.181 22.3634ZM322.068 12.3741C322.97 13.1264 323.421 14.1945 323.421 15.5786C323.421 16.9626 322.97 18.0157 322.068 18.7829C321.166 19.5502 319.814 19.9413 318.04 19.9413H313.306V11.2609H318.04C319.829 11.2609 321.166 11.637 322.068 12.3892V12.3741Z" fill="#090909"/>
<path d="M341.848 7.8299L332.048 29.6439H336.227L338.392 24.5891H349.288L351.452 29.6439H355.691L345.831 7.8299H341.848ZM339.729 21.4147L343.817 11.8617L347.92 21.4147H339.729Z" fill="#090909"/>
<path d="M361.552 29.6439H365.595V21.2944H376.116V17.8644H365.595V11.2148H377.469V7.8299H361.552V29.6439Z" fill="#090909"/>
<path d="M381.858 7.8299V11.26H389.072V29.6439H393.116V11.26H400.345V7.8299H381.858Z" fill="#090909"/>
<path d="M404.072 8.25206H405.62V12.2688H406.086V8.25206H407.649V7.84587H404.072V8.25206Z" fill="#090909"/>
<path d="M412.624 7.84587L410.716 11.1255L408.807 7.84587H408.416V12.2688H408.867V8.74852L410.61 11.7122H410.821L412.564 8.73347V12.2688H413V7.84587H412.624Z" fill="#090909"/>
</svg>
