<svg width="139" height="45" viewBox="0 0 139 45" fill="none" xmlns="http://www.w3.org/2000/svg">
<path d="M131 25.9761C130.496 28.0487 128.965 29.233 126.632 29.233C123.683 29.233 121.63 27.179 121.63 24.2182C121.63 21.2388 123.683 19.1848 126.632 19.1848C129.059 19.1848 130.533 20.5356 130.925 22.3861H129.059C128.704 21.4794 128.014 20.7207 126.595 20.7207C124.728 20.7207 123.534 22.2566 123.534 24.2182C123.534 26.1612 124.728 27.6786 126.595 27.6786C127.883 27.6786 128.723 27.0864 129.115 25.9761H131Z" fill="#090909"/>
<path d="M119.869 17.7599H117.853V15.7798H119.869V17.7599ZM117.816 28.9925V19.4253H119.738V28.9925H117.816Z" fill="#090909"/>
<path d="M114.17 26.0132C114.17 26.9384 114.562 27.4565 115.402 27.4565H116.055V29.011H115.122C113.068 29.011 112.284 27.8267 112.284 26.1982V20.9428H110.81V19.4253H112.284V17.2047L114.17 16.372V19.4253H116.036V20.9428H114.17V26.0132Z" fill="#090909"/>
<path d="M101.628 22.3306C101.852 20.8687 103.084 19.1663 105.604 19.1663C108.982 19.1663 109.58 21.2573 109.58 23.0338V26.9199C109.58 27.6416 109.636 28.4743 109.729 28.9925H107.732C107.694 28.5854 107.694 28.1968 107.694 27.7341V27.327H107.676C107.396 28.0857 106.593 29.233 104.54 29.233C102.3 29.233 101.161 27.8267 101.161 26.3833C101.161 23.7 104.521 23.552 105.94 23.3114C107.19 23.1079 107.676 22.8118 107.676 22.0161C107.676 21.2203 106.929 20.7022 105.641 20.7022C104.54 20.7022 103.719 21.3314 103.495 22.3306H101.628ZM103.065 26.3462C103.065 27.179 103.812 27.7341 104.969 27.7341C106.35 27.7341 107.713 26.8644 107.713 24.5512V23.3854C107.508 23.9591 107.041 24.4957 105.193 24.8103C103.831 25.0694 103.065 25.458 103.065 26.3462Z" fill="#090909"/>
<path d="M86.0442 28.9925V19.4253H87.948V21.0353C88.172 20.147 89.1053 19.1848 90.4306 19.1848C91.9238 19.1848 92.8198 19.7769 93.2677 21.0538C93.8464 19.814 94.6863 19.1848 96.0116 19.1848C98.3821 19.1848 99.39 20.8317 99.39 22.9043V28.9925H97.4862V23.2189C97.4862 21.6274 96.9075 20.8132 95.7503 20.8132C94.5557 20.8132 93.6597 21.9976 93.6597 24.3292V28.9925H91.7745V23.2189C91.7745 21.6274 91.3825 20.8132 90.0573 20.8132C88.4147 20.8132 87.9667 22.4787 87.9667 24.4217V28.9925H86.0442Z" fill="#090909"/>
<path d="M84.0587 26.1612C83.5174 28.1412 81.8748 29.233 79.6536 29.233C76.7791 29.233 74.8566 27.179 74.8566 24.1626C74.8566 21.2759 76.8724 19.1848 79.6349 19.1848C82.9761 19.1848 84.1893 21.794 84.208 24.3847V24.7363H76.7044C76.8538 26.5683 78.011 27.6786 79.6349 27.6786C80.8295 27.6786 81.8375 27.216 82.1735 26.1612H84.0587ZM76.7231 23.3114H82.3041C82.1548 21.794 81.2962 20.7022 79.6349 20.7022C77.9924 20.7022 76.9471 21.757 76.7231 23.3114Z" fill="#090909"/>
<path d="M71.0872 19.4253V21.2758C71.5911 19.9065 72.5618 19.3698 73.9803 19.3698V21.1648C73.887 21.1648 73.4577 21.1833 73.1777 21.2573C72.1511 21.4239 71.1058 21.9235 71.1058 24.5512V28.9925H69.1833V19.4253H71.0872Z" fill="#090909"/>
<path d="M67.3109 25.9761C66.8069 28.0487 65.2763 29.233 62.9431 29.233C59.994 29.233 57.9408 27.179 57.9408 24.2182C57.9408 21.2388 59.994 19.1848 62.9431 19.1848C65.3696 19.1848 66.8442 20.5356 67.2362 22.3861H65.3696C65.015 21.4794 64.3244 20.7207 62.9058 20.7207C61.0392 20.7207 59.8446 22.2566 59.8446 24.2182C59.8446 26.1612 61.0392 27.6786 62.9058 27.6786C64.1937 27.6786 65.0337 27.0864 65.4256 25.9761H67.3109Z" fill="#090909"/>
<path d="M47.0281 28.9925H44.9376L49.8653 15.7798H52.3852L57.3129 28.9925H55.2037L53.8411 25.2544H48.4094L47.0281 28.9925ZM48.988 23.6445H53.2624L51.1346 17.5933H51.0972L48.988 23.6445Z" fill="#090909"/>
<path fill-rule="evenodd" clip-rule="evenodd" d="M30.7913 7.01441C32.5993 7.01441 34.1134 7.01113 35.3126 7.17096C36.5569 7.33683 37.6947 7.7036 38.6108 8.61189C39.527 9.52019 39.897 10.6482 40.0643 11.8818C40.2255 13.0706 40.2222 14.5718 40.2222 16.3642V28.6358C40.2222 30.4282 40.2255 31.9294 40.0643 33.1182C39.897 34.3519 39.527 35.4798 38.6108 36.3881C37.6947 37.2964 36.5569 37.6632 35.3126 37.8291C34.1134 37.9889 32.5993 37.9856 30.7913 37.9856H17.4309C15.6229 37.9856 14.1088 37.9889 12.9096 37.8291C11.6653 37.6632 10.5275 37.2964 9.61134 36.3881C8.69518 35.4798 8.32522 34.3519 8.15792 33.1182C7.9967 31.9294 8.00001 30.4282 8.00001 28.6358V16.3642C8.00001 14.5718 7.99669 13.0706 8.15792 11.8818C8.32522 10.6482 8.69517 9.52019 9.61134 8.61189C10.5275 7.7036 11.6653 7.33683 12.9096 7.17096C14.1088 7.01113 15.6229 7.01441 17.4309 7.01441H30.7913ZM17.4309 8.57271C13.7261 8.57271 11.8736 8.57262 10.7227 9.71366C9.57173 10.8547 9.57182 12.6913 9.57182 16.3642V28.6358C9.57182 32.3088 9.57173 34.1453 10.7227 35.2864C11.8736 36.4274 13.7261 36.4273 17.4309 36.4273H30.7913C34.4383 36.4273 36.2902 36.4273 37.445 35.3389L37.4995 35.2864C38.6504 34.1453 38.6504 32.3088 38.6504 28.6358V16.3642C38.6504 12.7486 38.6504 10.9126 37.5525 9.76768L37.4995 9.71366C36.3486 8.57262 34.4961 8.57271 30.7913 8.57271H17.4309Z" fill="#090909"/>
<path fill-rule="evenodd" clip-rule="evenodd" d="M23.9702 12.0947C24.6593 12.0947 25.1152 12.5141 25.381 12.8656C25.6421 13.2109 25.8179 13.6224 25.9048 13.8067L32.5689 27.9242C33.1165 28.8834 33.0644 29.7903 32.7408 30.5152C32.4301 31.2114 31.8851 31.7125 31.466 31.9746L31.4542 31.9822L31.4419 31.989C30.2466 32.6717 28.9667 32.335 27.9949 31.8135C27.1495 31.3598 26.4105 30.7051 25.9137 30.1625H22.044C20.7622 31.5155 19.7551 32.2261 18.8616 32.4591C17.8274 32.7287 17.0903 32.3272 16.545 31.9636C15.65 31.3669 15.2385 30.5678 15.1326 29.7985C15.0331 29.0759 15.2044 28.3946 15.454 27.9354L22.0657 13.8088C22.3126 13.26 22.5684 12.8396 22.8692 12.5523C23.2033 12.2333 23.5766 12.0947 23.9702 12.0947ZM23.9702 13.4911C23.9511 13.4911 23.9271 13.4834 23.8499 13.5571C23.7413 13.6608 23.5727 13.8918 23.3514 14.3853L23.3493 14.3905L23.3468 14.3956L16.7176 28.5597L16.7044 28.5831C16.5856 28.7932 16.4731 29.1868 16.5313 29.6099C16.5856 30.0043 16.7889 30.4419 17.3339 30.8053C17.7751 31.0994 18.0686 31.2215 18.5019 31.1085C19.027 30.9716 19.8628 30.4595 21.214 28.9936L21.4239 28.7659H26.5689L26.7807 29.0203C27.1814 29.5015 27.8864 30.1664 28.6682 30.586C29.4555 31.0085 30.1563 31.1033 30.7237 30.7863C30.9592 30.6355 31.2782 30.3343 31.4494 29.951C31.6071 29.5975 31.655 29.1501 31.3289 28.5913L31.3135 28.5651L24.6256 14.3975C24.5066 14.1453 24.4018 13.9022 24.2505 13.702C24.104 13.5083 24.0154 13.4911 23.9702 13.4911Z" fill="#090909"/>
</svg>
