<svg width="98" height="45" viewBox="0 0 98 45" fill="none" xmlns="http://www.w3.org/2000/svg">
<path d="M63.8102 29.1722C65.6674 29.3546 66.9479 29.7148 67.6455 30.2574C68.4574 30.8908 68.8656 31.7047 68.8656 32.6983C68.8656 34.0547 68.1082 35.1392 66.5994 35.953C65.2048 36.7669 62.9386 37.1738 59.8009 37.1738C57.4749 37.1738 55.5002 36.7669 53.8739 35.953C52.3618 35.228 51.6077 34.3701 51.6077 33.3765C51.6077 32.743 51.8965 32.1116 52.4793 31.4781C53.0594 30.8467 53.988 30.3489 55.2685 29.9861C54.5715 29.7148 53.9881 29.3994 53.5254 29.0366C53.1769 28.7653 53.0023 28.4051 53.0023 27.9515C53.0023 27.4089 53.234 26.9131 53.6993 26.4594C54.0478 26.0992 54.6279 25.7812 55.4424 25.5099C54.6279 24.9673 53.9881 24.4248 53.5247 23.8829C53.0587 23.3403 52.8277 22.6621 52.8277 21.8489C52.8277 20.4036 53.4079 19.1835 54.5709 18.1872C55.7312 17.1936 57.4743 16.6952 59.8002 16.6952C60.7288 16.6952 61.6004 16.786 62.4149 16.9664C63.3435 17.1488 64.0982 17.4642 64.6811 17.9159C65.4929 17.4649 66.1898 17.1021 66.7727 16.8308C67.4696 16.6504 68.0498 16.5595 68.5158 16.5595C69.0959 16.5595 69.5022 16.6952 69.7365 16.9664C69.9681 17.3286 70.085 17.6446 70.085 17.9159C70.085 18.2781 69.9681 18.5494 69.7365 18.7298C69.6197 19.0011 69.3276 19.1367 68.8649 19.1367C68.5164 19.1367 68.225 19.0478 67.9934 18.8654C67.759 18.7765 67.5845 18.5941 67.4703 18.3229C67.3535 18.0516 67.0614 17.9159 66.5987 17.9159C66.2502 18.0068 65.8414 18.1872 65.3787 18.4585C65.842 18.8206 66.1905 19.3191 66.4248 19.9506C66.6565 20.584 66.7733 21.2174 66.7733 21.8489C66.7733 22.8445 66.1905 23.8829 65.0302 24.968C63.8672 26.0531 62.1241 26.595 59.8009 26.595C59.1039 26.595 58.4633 26.5061 57.8832 26.3238C57.3004 26.2349 56.837 26.0992 56.4885 25.9168C56.0226 26.0992 55.6741 26.3237 55.4424 26.595C55.2081 26.8663 55.0939 27.0928 55.0939 27.2732C55.0939 27.6354 55.2081 27.9067 55.4424 28.0871C55.6741 28.2695 56.0226 28.3584 56.4885 28.3584C57.9973 28.5408 59.3349 28.6764 60.4978 28.7653C61.7756 28.9477 62.8782 29.0833 63.8102 29.1722ZM56.6631 30.2574C55.617 30.6195 54.8596 31.0264 54.3969 31.4781C54.0485 32.0207 53.8739 32.6522 53.8739 33.3765C53.8739 34.1008 54.3969 34.777 55.4424 35.4104C56.4885 36.0419 58.0571 36.3599 60.1494 36.3599C62.0066 36.3599 63.5758 36.0886 64.8563 35.5461C66.0166 35.0924 66.5994 34.3701 66.5994 33.3765C66.5994 32.743 66.4248 32.2472 66.0763 31.8844C65.842 31.5242 65.4364 31.2977 64.8556 31.2062C62.8782 30.9349 61.6011 30.7552 61.0209 30.6636C59.6263 30.5747 58.1719 30.4391 56.6625 30.2567L56.6631 30.2574ZM55.2685 21.8495C55.2685 22.9347 55.6741 23.8394 56.4885 24.5617C57.3004 25.3756 58.4062 25.7825 59.8009 25.7825C61.1955 25.7825 62.2987 25.4223 63.1132 24.6974C63.925 23.975 64.3332 23.0255 64.3332 21.8495C64.3332 20.3134 63.8672 19.1841 62.9386 18.4592C62.1241 17.8277 61.0787 17.5097 59.8009 17.5097C58.4062 17.5097 57.3004 17.8277 56.4885 18.4592C55.6741 19.0926 55.2685 20.2218 55.2685 21.8495Z" fill="#090909"/>
<path d="M15.2386 31.3379H14.2044C13.7451 31.3379 13.3993 31.2477 13.1709 31.0659C12.9386 30.9744 12.8258 30.7466 12.8258 30.3844V20.4655C13.2831 19.4686 14.0305 18.7456 15.0654 18.2926C16.1002 17.9304 17.0183 17.7447 17.8234 17.7447C18.8583 17.7447 19.6031 17.9304 20.0631 18.2926C20.6372 18.6521 20.924 19.2895 20.924 20.1955V30.3844C20.924 30.7466 20.8112 30.9744 20.5802 31.0659C20.3505 31.2477 20.006 31.3379 19.5493 31.3379H18.5138V32.1517H25.7531V31.3379H24.7189C24.2562 31.3379 23.9137 31.2477 23.6834 31.0659C23.4524 30.9744 23.3375 30.7466 23.3375 30.3844V20.3305C23.7962 19.4238 24.5463 18.7449 25.5785 18.2926C26.6127 17.9304 27.5314 17.7447 28.3365 17.7447C29.3694 17.7447 30.1175 17.9304 30.5782 18.2926C31.151 18.6521 31.4384 19.2895 31.4384 20.1955V30.3844C31.4384 30.7466 31.3229 30.9744 31.0946 31.0659C30.8636 31.2477 30.5184 31.3379 30.0631 31.3379H29.0262V32.1517H36.61V31.3379H35.23C34.772 31.3379 34.4262 31.2477 34.1945 31.0659C33.9661 30.9744 33.8513 30.7466 33.8513 30.3844V20.0572C33.8513 19.0616 33.392 18.2458 32.4713 17.6124C31.5513 16.977 30.3445 16.6603 28.8516 16.6603C27.4736 16.6603 26.3804 16.8407 25.5772 17.2028C24.7733 17.5676 23.9124 18.1102 22.993 18.8338C22.6459 18.1102 22.0146 17.5676 21.0966 17.2028C20.2894 16.8407 19.3727 16.6603 18.3385 16.6603C17.3043 16.6603 16.3292 16.7939 15.4086 17.0698C14.604 17.4306 13.7431 17.9765 12.8238 18.6995V16.3896H12.4786C12.1328 16.57 11.6734 16.7077 11.0992 16.7939C10.5251 16.8868 9.95088 16.9335 9.37537 16.9335H8.17059V17.7447H9.54929C9.89512 17.7447 10.1241 17.7928 10.2396 17.8843C10.3525 18.0661 10.4109 18.2926 10.4109 18.5632V30.3844C10.4109 30.7466 10.2967 30.9744 10.0664 31.0659C9.83671 31.2477 9.49021 31.3379 9.03219 31.3379H8V32.1517H15.2386V31.3379Z" fill="#090909"/>
<path d="M37.0037 30.1118C38.7275 31.6539 40.9107 32.4237 43.5553 32.4237C46.1998 32.4237 48.2098 31.6539 49.933 30.1118C51.6568 28.6665 52.5191 26.809 52.5191 24.5407C52.5191 22.5508 51.7139 20.7354 50.1042 19.1058C48.4959 17.4748 46.312 16.6596 43.5553 16.6596C40.7985 16.6596 38.7275 17.4748 37.0037 19.1058C35.3953 20.6479 34.5928 22.458 34.5928 24.5407C34.5928 26.809 35.3953 28.6659 37.0037 30.1118ZM39.2466 19.2414C40.5085 18.0654 41.9436 17.4741 43.5553 17.4741C45.2791 17.4741 46.7156 18.0654 47.8646 19.2414C49.1284 20.5116 49.7597 22.3223 49.7597 24.6763C49.7597 26.7616 49.1842 28.4381 48.0359 29.7043C46.8862 30.9731 45.3933 31.6065 43.5559 31.6065C41.8321 31.6065 40.3372 31.0205 39.0727 29.8419C37.9237 28.7535 37.3515 27.0336 37.3515 24.6763C37.3515 22.319 37.9808 20.5109 39.2473 19.2414H39.2466Z" fill="#090909"/>
<path d="M69.1368 32.1517H84.4803V31.3379H83.2723C82.8116 31.3379 82.4087 31.2477 82.0641 31.0659C81.8351 30.8855 81.7223 30.6123 81.7223 30.2481V15.9801H81.3758C80.7983 16.252 80.169 16.4798 79.48 16.6603C78.7903 16.8407 78.0416 16.9335 77.2404 16.9335H76.5507V17.7447H77.7575C78.329 17.7447 78.7319 17.8376 78.9623 18.0193C79.1906 18.2926 79.3061 18.6093 79.3061 18.9714V30.2481C79.3061 30.6116 79.1906 30.8849 78.9623 31.0659C78.7319 31.2477 78.329 31.3379 77.7575 31.3379H75.6738C75.2125 31.3379 74.8122 31.2477 74.4671 31.0659C74.2354 30.8855 74.1226 30.6123 74.1226 30.2481V7.82642H73.7781C73.0871 8.18857 72.4565 8.46183 71.8823 8.64158C71.3041 8.82595 70.6768 8.91484 69.9865 8.91484H68.9523V9.73001H70.1591C70.7332 9.73001 71.1342 9.82022 71.3625 10.0006C71.5935 10.1824 71.709 10.4556 71.709 10.8158V30.2488C71.709 30.6123 71.5935 30.8855 71.3625 31.0666C71.1335 31.2483 70.7332 31.3385 70.1591 31.3385H68.6961L68.9523 31.5861C68.7525 31.1338 69.182 32.3677 69.1362 32.1524L69.1368 32.1517Z" fill="#090909"/>
<path d="M78.6943 11.4966C79.151 11.8575 79.6694 12.0372 80.2436 12.0372C80.8178 12.0372 81.3349 11.8581 81.7975 11.4966C82.2522 11.1365 82.4852 10.7276 82.4852 10.2739C82.4852 9.82022 82.2522 9.41329 81.7975 9.05048C81.3349 8.77591 80.8191 8.64093 80.2436 8.64093C79.6681 8.64093 79.151 8.77591 78.6943 9.05048C78.233 9.41264 78.004 9.81956 78.004 10.2739C78.004 10.7282 78.233 11.1371 78.6943 11.4966Z" fill="#090909"/>
<path d="M84.2217 9.46136V9.29411H86.693V9.46136H85.5546V12.4336H85.3561V9.46136H84.2217Z" fill="#090909"/>
<path d="M86.9134 9.29411H87.1981L88.4587 12.2177H88.468L89.7152 9.29411H90V12.433H89.8009V9.53182H89.7922L88.5629 12.4336H88.3644L87.1218 9.53182H87.1132V12.4336H86.914V9.29411H86.9134Z" fill="#090909"/>
</svg>
