<svg width="139" height="45" viewBox="0 0 139 45" fill="none" xmlns="http://www.w3.org/2000/svg">
<g clip-path="url(#clip0_1_2110)">
<path d="M17.4847 13H18.9083C21.0583 13.3042 22.554 13.5926 24.3703 14.9278C26.3117 16.3814 27.4648 18.4597 27.7919 20.8047C28.7175 27.4395 23.6667 32.199 16.9721 31.5025C12.5853 31.0979 9.19655 28.085 8.61541 23.7386C8.05543 19.5505 9.9071 15.5316 13.9736 13.8162C15.1647 13.3137 16.2207 13.1706 17.4847 13Z" fill="#090909"/>
<path d="M17.6841 16.8526C20.7374 16.5741 23.4436 18.7772 23.7323 21.7765C24.021 24.7758 21.7832 27.4384 18.7309 27.7272C15.6712 28.0166 12.9532 25.8115 12.6637 22.805C12.3743 19.7984 14.6234 17.1318 17.6841 16.8526Z" fill="#E9E4DD"/>
<path d="M118.353 16.0425C118.632 16.2355 120.523 15.9781 120.939 15.9065C120.779 16.1057 120.796 16.0771 120.478 16.115C120.431 16.1206 120.384 16.1259 120.337 16.1309C120.641 16.576 121.604 16.4284 122.034 16.5615C122.859 16.8168 123.629 17.2999 124.371 17.7226C124.524 17.8124 124.7 17.7329 124.815 17.7814C124.701 17.931 123.232 18.1356 122.98 18.1713C121.855 18.3233 120.721 18.4084 119.585 18.4261C121.368 18.8372 123.207 19.1136 124.1 20.7765C126.62 25.4679 121.331 28.5505 117.088 27.4136C115.616 27.0192 114.531 26.3626 113.779 25.1457C113.178 24.1828 112.997 23.0232 113.276 21.9278C113.485 21.0894 113.873 20.5463 114.481 19.9508C114.592 19.8418 114.722 19.7413 114.667 19.6479C114.282 19.6804 112.934 20.2642 112.482 20.4281C112.549 20.3559 112.609 20.2799 112.671 20.2034C112.53 20.2839 112.494 20.3015 112.336 20.3402C112.221 20.2035 112.234 20.1072 112.315 19.9469C112.521 19.5436 112.716 19.1089 112.989 18.7463C113.072 18.6365 113.302 18.5575 113.412 18.4723C114.183 17.551 115.231 17.0699 116.329 16.6309C116.92 16.3891 117.485 16.3221 118.114 16.225C118.169 16.2166 118.307 16.0878 118.353 16.0425Z" fill="#090909"/>
<path d="M122.151 21.3638C122.795 21.7636 123.269 22.454 123.062 23.2257C122.975 23.5484 122.759 23.8232 122.463 23.9882C121.751 24.3913 120.765 24.104 120.028 23.9094C119.477 23.6855 119.237 23.585 118.797 23.1952C120.405 22.8814 121.078 22.5621 122.151 21.3638Z" fill="#E9E4DD"/>
<path d="M130.318 13H130.545L130.543 20.9394C129.758 19.5333 128.623 17.7898 127.127 17.0082C126.644 17.28 125.363 17.7836 124.815 17.7813C124.701 17.7329 124.524 17.8123 124.371 17.7226C123.629 17.2999 122.86 16.8168 122.034 16.5615C121.604 16.4283 120.642 16.5759 120.338 16.1309C120.385 16.1258 120.432 16.1205 120.478 16.1149C120.797 16.077 120.78 16.1056 120.939 15.9064C121.095 15.902 121.888 15.7691 122.062 15.7379C124.162 15.3626 126.431 14.9219 128.419 14.1648C129.1 13.9055 129.808 13.4988 130.318 13Z" fill="#090909"/>
<path d="M107.565 22.0061C109.477 18.8438 112.599 16.7118 116.099 15.5391C116.49 15.4079 119.647 14.3431 119.783 14.3973C118.997 15.1006 118.973 15.24 118.352 16.0425C118.307 16.0878 118.169 16.2165 118.114 16.2249C117.485 16.322 116.92 16.3891 116.329 16.6308C115.231 17.0698 114.183 17.5509 113.412 18.4722C113.302 18.5574 113.072 18.6364 112.989 18.7462C112.716 19.1088 112.52 19.5435 112.315 19.9468C112.233 20.1072 112.221 20.2035 112.336 20.3401C112.494 20.3014 112.53 20.2838 112.671 20.2033C112.609 20.2799 112.549 20.3558 112.481 20.4281C112.238 20.5104 111.647 20.8188 111.412 20.9408C109.82 21.7654 108.417 22.877 107.564 24.4619L107.565 22.0061Z" fill="#090909"/>
<path d="M38.9931 13.3423L43.783 13.3389C47.1996 13.3383 50.5155 13.3487 53.1415 15.8891C54.2498 16.9613 55.0115 18.2187 55.3926 19.6987C56.2589 23.0636 55.5295 26.2974 53.085 28.7688C50.0789 31.2358 47.8921 31.2268 44.1561 31.227L38.9766 31.2241L38.9763 19.446C38.976 17.606 38.8966 15.1361 38.9931 13.3423Z" fill="#090909"/>
<path d="M43.1125 17.0652C45.3903 17.0567 48.0414 16.7804 49.8651 18.3964C51.5949 19.9292 51.8995 22.5553 51.0384 24.6001C50.7999 25.1664 50.4066 25.6292 49.9931 26.0771C48.1627 27.8369 45.4676 27.5084 43.0816 27.5002L43.0797 20.0915C43.0796 19.6185 43.049 17.361 43.1125 17.0652Z" fill="#E9E4DD"/>
<path d="M94.6412 13.342L98.7285 13.3458L98.728 31.2242L95.2224 31.2248L90.0098 24.1119C89.2179 23.0294 88.0286 21.3043 87.1898 20.3078L87.1887 31.2243L83.0796 31.2237V19.5723C83.079 17.6155 83.02 15.2772 83.0935 13.3452L86.5623 13.3424C87.2155 14.1217 88.0386 15.3164 88.6606 16.1592L92.5077 21.3678C92.9608 21.9842 94.1658 23.7125 94.6417 24.2124L94.6412 13.342Z" fill="#090909"/>
<path d="M66.825 13.3433L70.9481 13.347V31.224L66.8184 31.2237L66.825 13.3433Z" fill="#090909"/>
<path d="M124.488 27.5028C124.585 27.4231 125.589 27.0155 125.779 26.9303C126.293 26.6993 126.795 26.4428 127.283 26.1617C127.747 25.8895 129.823 24.1687 130.045 24.2024C130.275 24.9068 128.395 27.0862 127.869 27.6669C125.784 29.9979 122.338 30.9348 119.28 30.878C119.144 30.8755 116.201 29.5636 115.872 29.4287C114.173 28.7173 112.418 28.1436 110.624 27.7132C109.872 27.5321 109.098 27.4408 108.327 27.3922C107.981 27.3704 107.591 27.4622 107.533 27.0907C107.571 26.9813 107.653 26.8595 107.763 26.8253C109.583 26.2595 111.958 26.2938 113.703 26.8016C114.166 26.8902 115.1 27.1944 115.567 27.3634C117.482 28.0562 119.004 28.5276 121.072 28.3218C121.772 28.2521 122.267 28.1368 122.944 27.9461C123.209 27.8716 124.329 27.5084 124.488 27.5028Z" fill="#090909"/>
<path d="M113.701 26.8018C114.164 26.8904 115.099 27.1946 115.566 27.3635C117.48 28.0563 119.003 28.5277 121.071 28.3219C121.77 28.2523 122.265 28.1369 122.943 27.9462C123.207 27.8717 124.328 27.5086 124.487 27.5029L124.426 27.6424C123.897 27.8777 123.003 28.1125 122.437 28.269C121.941 28.4058 121.443 28.275 121.043 28.6009C120.97 28.6608 120.185 28.458 120.107 28.7565C120.082 28.8511 118.996 28.8096 118.88 28.8039C118.777 28.6924 118.807 28.7105 118.796 28.5321L118.582 28.558C117.599 28.6742 117.993 28.3809 117.813 28.3277C116.958 28.0739 116.162 27.6954 115.322 27.417C114.669 27.2007 114.304 27.2665 113.701 26.8018Z" fill="#090909"/>
</g>
<defs>
<clipPath id="clip0_1_2110">
<rect width="123" height="19" fill="white" transform="translate(8 13)"/>
</clipPath>
</defs>
</svg>
