<svg width="110" height="45" viewBox="0 0 110 45" fill="none" xmlns="http://www.w3.org/2000/svg">
<path d="M44.7628 11.1597C45.9532 11.7987 46.8808 12.7162 47.5376 13.8876C48.1943 15.0673 48.5228 16.419 48.5228 17.9427C48.5228 19.4664 48.1862 20.7608 47.5048 21.9076C46.8234 23.0463 45.871 23.9393 44.6396 24.57C43.4082 25.2008 41.9961 25.5121 40.4034 25.5121H35.3217C35.1986 25.5121 35.1411 25.5695 35.1411 25.6924V34.7937C35.1411 34.9166 35.1001 35.0149 35.018 35.0968C34.9359 35.1787 34.8291 35.2197 34.7142 35.2197H30.5273C30.4042 35.2197 30.3057 35.1787 30.2236 35.0968C30.1415 35.0149 30.1005 34.9166 30.1005 34.7937V10.6272C30.1005 10.5043 30.1415 10.406 30.2236 10.3241C30.3057 10.2422 30.4042 10.2012 30.5273 10.2012H40.6169C42.1931 10.2012 43.5723 10.5207 44.7709 11.1679L44.7628 11.1597ZM42.5052 20.5314C43.1701 19.9006 43.5067 19.0732 43.5067 18.0492C43.5067 17.0252 43.1702 16.1568 42.5052 15.5179C41.8402 14.8789 40.9535 14.5512 39.8617 14.5512H35.3218C35.1986 14.5512 35.1411 14.6085 35.1411 14.7315V21.3014C35.1411 21.4243 35.1986 21.4817 35.3218 21.4817H39.8617C40.9617 21.4817 41.8402 21.1704 42.5052 20.5396V20.5314Z" fill="#090909"/>
<path d="M51.7573 35.0965C51.6752 35.0146 51.6342 34.9163 51.6342 34.7934V10.6597C51.6342 10.545 51.6752 10.4385 51.7573 10.3566C51.8394 10.2747 51.938 10.2337 52.0611 10.2337H56.2479C56.3711 10.2337 56.4696 10.2747 56.5517 10.3566C56.6338 10.4385 56.6748 10.545 56.6748 10.6597V34.7934C56.6748 34.9163 56.6338 35.0146 56.5517 35.0965C56.4696 35.1784 56.3629 35.2194 56.2479 35.2194H52.0611C51.938 35.2194 51.8394 35.1784 51.7573 35.0965Z" fill="#090909"/>
<path d="M75.5488 10.3566C75.6307 10.2747 75.7294 10.2337 75.8526 10.2337H80.0394C80.1626 10.2337 80.2608 10.2747 80.3432 10.3566C80.4251 10.4385 80.4663 10.545 80.4663 10.6597V34.7934C80.4663 34.9163 80.4251 35.0146 80.3432 35.0965C80.2608 35.1784 80.1544 35.2194 80.0394 35.2194H76.0001C75.762 35.2194 75.5977 35.1211 75.4995 34.9327L66.2308 19.6545C66.1814 19.5808 66.1321 19.5562 66.0914 19.5644C66.042 19.5808 66.0176 19.63 66.0176 19.7283L66.0914 34.7934C66.0914 34.9163 66.0502 35.0146 65.9682 35.0965C65.8858 35.1784 65.7795 35.2194 65.6645 35.2194H61.4776C61.3545 35.2194 61.2558 35.1784 61.1739 35.0965C61.0915 35.0146 61.0507 34.9163 61.0507 34.7934V10.6597C61.0507 10.545 61.0915 10.4385 61.1739 10.3566C61.2558 10.2747 61.3545 10.2338 61.4776 10.2338H65.5164C65.7545 10.2338 65.9189 10.332 66.0176 10.5205L75.2451 25.7249C75.2944 25.7986 75.3433 25.8232 75.3845 25.815C75.4338 25.8068 75.4583 25.7495 75.4583 25.6511L75.4257 10.6597C75.4257 10.545 75.4664 10.4385 75.5488 10.3566Z" fill="#090909"/>
<path d="M101.877 14.428C101.794 14.5099 101.688 14.5509 101.573 14.5509H89.8414C89.7182 14.5509 89.6607 14.6082 89.6607 14.7311V20.2607C89.6607 20.3836 89.7182 20.441 89.8414 20.441H97.5338C97.6569 20.441 97.7556 20.4819 97.8376 20.5638C97.9195 20.6457 97.9607 20.7522 97.9607 20.8669V24.3321C97.9607 24.4551 97.9195 24.5533 97.8376 24.6353C97.7556 24.7172 97.6488 24.7581 97.5338 24.7581H89.8414C89.7182 24.7581 89.6607 24.8155 89.6607 24.9384V30.7219C89.6607 30.8448 89.7182 30.9022 89.8414 30.9022H101.573C101.688 30.9022 101.794 30.9431 101.877 31.025C101.959 31.1069 102 31.2134 102 31.3281V34.7933C102 34.9162 101.959 35.0145 101.877 35.0964C101.794 35.1784 101.688 35.2193 101.573 35.2193H85.047C84.9239 35.2193 84.8257 35.1784 84.7432 35.0964C84.6613 35.0145 84.6201 34.9162 84.6201 34.7933V10.6597C84.6201 10.545 84.6613 10.4385 84.7432 10.3566C84.8257 10.2747 84.9239 10.2337 85.047 10.2337H101.573C101.688 10.2337 101.794 10.2747 101.877 10.3566C101.959 10.4385 102 10.545 102 10.6597V14.1249C102 14.2478 101.959 14.3461 101.877 14.428Z" fill="#090909"/>
<path d="M26.6442 19.581C26.6442 18.4259 26.6278 17.5084 26.3897 16.5008C26.2174 15.6161 25.9054 14.7313 25.4621 13.9285C25.3718 13.7483 25.2486 13.6172 25.2076 13.6008C25.1747 13.6008 25.2076 13.7073 25.2897 13.8548C23.7791 11.4873 21.1439 10.0618 18.1884 9.88983C16.7271 9.79973 15.2411 9.91441 13.8455 10.365C10.9968 11.2497 8.79664 13.6172 8.20556 16.5417C7.8936 17.7788 8.02494 19.581 8.04136 20.8426C8.04139 17.7788 8.13168 15.2556 10.3893 12.9045C10.7751 12.5031 11.1938 12.159 11.6454 11.8559C11.3006 12.1344 10.9722 12.4457 10.6766 12.7898C10.0856 13.4533 9.56835 14.2398 9.20714 15.0754C8.84593 15.911 8.62426 16.7875 8.53394 17.6477C8.51752 17.7624 8.51752 17.8525 8.50931 17.9508C8.5011 18.0491 8.49289 18.1474 8.49289 18.2375L8.46827 18.8191C8.46006 19.1632 8.46827 20.5312 8.54214 20.5722C8.62423 20.6131 8.91156 17.7705 8.93619 17.5411C9.0429 16.6482 9.2974 15.7471 9.69969 14.9115C9.89673 14.4937 10.1348 14.0923 10.3975 13.7237C10.6602 13.355 10.9393 13.0109 11.2595 12.6833C11.8916 12.0279 12.6715 11.4626 13.5089 11.0694C14.0508 10.8155 14.6172 10.6271 15.1837 10.4878C15.627 10.4141 16.0703 10.3649 16.5136 10.3485C15.6516 10.4222 14.765 10.6271 13.9112 11.0203C13.0738 11.4053 12.3349 11.9542 11.7521 12.5768C11.1692 13.2076 10.7259 13.8793 10.3729 14.633C9.85565 15.5505 9.54369 16.5827 9.42877 17.6149L9.40414 17.8115L9.38773 17.9917C9.37952 18.1146 9.37131 18.2293 9.37131 18.3522C9.3631 18.5898 9.34668 18.8519 9.34668 19.0567C9.33848 19.4991 9.32206 19.9414 9.31385 20.392C9.31385 20.4657 9.31385 20.5395 9.33027 20.5641C9.34668 20.5887 9.3631 20.5477 9.3631 20.4821C9.38773 20.179 9.41235 19.8678 9.42877 19.5565C9.45339 19.237 9.46981 18.9175 9.49444 18.598C9.51086 18.4259 9.51906 18.2621 9.53548 18.0901L9.56011 17.8361L9.59294 17.5658C9.64219 17.2054 9.72431 16.8449 9.82281 16.4926C9.82281 16.7302 9.86386 16.8776 9.92952 16.8695C10.0034 16.8695 10.1019 16.7056 10.2086 16.4598C10.1348 16.7711 10.0773 17.0824 10.0444 17.3937C10.0198 17.5903 10.0444 17.746 10.0773 17.7378C10.1183 17.7378 10.1512 17.5903 10.1758 17.4101C10.2497 16.7793 10.3974 16.1567 10.6437 15.5669C10.8818 14.9771 11.202 14.4118 11.5878 13.9121C12.064 13.3223 12.6386 12.7898 13.2872 12.3802C13.9357 11.9705 14.65 11.6838 15.3807 11.5036C15.1918 11.6019 15.0605 11.7084 15.0112 11.7903C14.7895 11.8559 14.5761 11.9378 14.3709 12.0279C13.8783 12.2164 13.4104 12.4621 12.9753 12.7734C12.5401 13.0847 12.1461 13.4533 11.8013 13.8629C11.1035 14.6658 10.5781 15.6734 10.3236 16.7384C10.1922 17.2708 10.1348 17.8279 10.1184 18.344C10.0937 18.8847 10.0937 19.3844 10.0937 19.8923V21.3832C10.0937 21.4652 10.1101 21.5307 10.1266 21.5307C10.143 21.5307 10.1594 21.4734 10.1594 21.3997C10.1512 20.1626 10.1512 20.4985 10.1594 19.2697C10.1676 19.3189 10.1922 19.3271 10.2004 19.2697C10.2086 19.2206 10.2086 19.1222 10.2004 19.0731C10.1922 19.0158 10.1676 19.024 10.1594 19.0731C10.1594 18.7946 10.1758 18.4833 10.184 18.1884C10.2004 17.8934 10.2251 17.5903 10.2743 17.2872C10.3728 16.681 10.5452 16.0912 10.7915 15.5342C11.0378 14.9771 11.3744 14.461 11.7521 14.0023C12.1297 13.5435 12.5648 13.1257 13.0574 12.7816C12.6141 13.1175 12.22 13.5025 11.8834 13.9367C11.5468 14.3627 11.2431 14.8296 11.0132 15.3293C10.7833 15.8291 10.611 16.3534 10.5124 16.894C10.4057 17.4347 10.3729 17.9754 10.3811 18.5079L10.34 18.8601C10.3318 18.9748 10.3236 19.0895 10.3072 19.2041C10.3072 19.2697 10.3072 19.3516 10.3318 19.3762C10.3482 19.3926 10.3646 19.3516 10.3646 19.2861C10.3646 19.2206 10.3729 19.155 10.3811 19.0977C10.3811 19.4909 10.4549 19.8022 10.5453 19.794C10.6356 19.7694 10.7013 19.4336 10.7013 19.024C10.7013 18.7454 10.7177 18.4751 10.7259 18.2048C10.7341 17.9344 10.7587 17.6559 10.7998 17.3855C10.8819 16.8449 11.0214 16.3124 11.2267 15.8127C11.2759 15.7062 11.3252 15.5997 11.3827 15.4932C11.4483 15.3949 11.514 15.2966 11.5797 15.1983C11.1939 15.9438 10.9722 16.7712 10.8983 17.5986C10.8573 18.0082 10.8737 18.4342 10.8737 18.8519C10.8819 19.278 10.8983 19.6957 10.9065 20.1217C10.9065 20.2692 10.9312 20.3921 10.964 20.3921C10.9968 20.3921 11.0215 20.2774 11.0215 20.1299C11.0379 19.7613 11.0543 19.3844 11.0625 19.0076C11.0625 18.8192 11.0789 18.639 11.0871 18.4587C11.0871 18.2785 11.1035 18.0983 11.1282 17.9181C11.2021 17.2135 11.3827 16.5254 11.67 15.8946C11.8178 15.5752 11.9902 15.2721 12.1872 14.9853C12.3842 14.6986 12.6059 14.4201 12.844 14.1743C13.3201 13.6746 13.8866 13.265 14.5023 12.9701C15.3725 12.6916 16.2838 12.626 17.195 12.7161C17.0801 12.7243 16.9651 12.7325 16.8503 12.7407C15.4054 12.8718 14.1493 13.3223 13.1559 14.1989C12.9096 14.4201 12.6715 14.6659 12.4581 14.928C12.2446 15.1901 12.0558 15.4686 11.8916 15.7717C11.5633 16.3779 11.3416 17.0579 11.2677 17.7952C11.2595 17.8689 11.2677 17.9345 11.2841 17.9427C11.3006 17.9509 11.317 17.9017 11.3252 17.828C11.4073 17.1153 11.6207 16.4599 11.9327 15.8783C12.0887 15.5834 12.2693 15.3131 12.4745 15.0509C12.6798 14.7888 12.9096 14.5348 13.1559 14.3054C13.9687 13.5436 14.9292 13.1258 15.9389 12.9947C14.9292 13.2159 14.0343 13.6419 13.3037 14.33C12.9342 14.6741 12.5976 15.0837 12.3267 15.5097C12.0558 15.9439 11.8505 16.419 11.711 16.9269C11.6781 17.0169 11.6699 17.1071 11.6781 17.1726C11.6699 17.1726 11.6535 17.189 11.6453 17.2218C11.555 17.4757 11.4893 17.7625 11.4565 18.0737C11.4483 18.1311 11.4565 18.213 11.4647 18.2458C11.4811 18.2785 11.4893 18.2458 11.5057 18.1721C11.5139 18.0984 11.5221 18.0164 11.5386 17.9427C11.555 17.869 11.5632 17.8034 11.5796 17.7379C11.6124 17.6068 11.6371 17.4757 11.6863 17.3611C11.7027 17.3201 11.7027 17.2628 11.7027 17.23C11.7274 17.2545 11.7602 17.2054 11.793 17.1071C12.0968 16.1404 12.6304 15.2803 13.3775 14.5594C13.7387 14.2153 14.141 13.9204 14.5761 13.7074C15.0112 13.4862 15.4873 13.3306 15.9799 13.2487C15.9963 13.265 16.0292 13.2814 16.0784 13.2896C16.2262 13.3224 16.4971 13.306 16.7844 13.2568C16.8583 13.2405 16.9322 13.2323 17.0061 13.2159C17.4494 13.1667 17.9255 13.1504 18.3771 13.1749C18.8287 13.1995 19.2637 13.2732 19.6824 13.3797C19.8384 13.4617 20.019 13.5518 20.216 13.6419C20.8318 14.0105 21.3161 14.4938 21.7266 15.1C21.6856 15.0755 21.6528 15.0673 21.6281 15.0837C21.5953 15.1328 21.6691 15.2803 21.7841 15.4441C21.8416 15.526 21.8908 15.608 21.9483 15.6817C21.8663 15.5752 21.7841 15.4605 21.6938 15.354C21.6035 15.2475 21.5132 15.1492 21.4147 15.0509C21.3901 15.0263 21.3654 15.0018 21.3326 14.9772C21.1274 14.7642 20.9221 14.5758 20.6841 14.4119C20.1915 14.0433 19.584 13.7812 18.919 13.6255C18.5824 13.5436 18.2376 13.4862 17.8764 13.4617C17.5151 13.4289 17.1539 13.4207 16.8009 13.4371C16.1031 13.4698 15.4463 13.6009 14.847 13.8549C14.2478 14.1088 13.7142 14.4857 13.238 14.9936C13.2052 15.0263 13.1641 15.0837 13.1477 15.1247C13.1477 15.1574 13.1559 15.1574 13.1969 15.1247C13.8455 14.5103 14.5187 14.1908 15.2493 14.0269C15.9882 13.8631 16.7681 13.8467 17.7204 13.9532C18.2786 14.0187 18.7959 14.1416 19.2392 14.3218C19.4609 14.4119 19.6661 14.5185 19.8549 14.6332C20.0355 14.7478 20.1997 14.8707 20.3557 15.01C20.5035 15.1492 20.643 15.2967 20.7744 15.4605C20.955 15.7063 21.0945 15.9684 21.2095 16.2552C20.3639 14.7069 18.6974 13.8303 16.6121 14.1007C14.0918 14.4038 12.7126 16.6402 12.9507 19.0486L12.9917 19.6548C13.0245 19.2534 13.0492 18.852 13.0738 18.4506C13.1394 17.6642 13.3529 16.886 13.788 16.2306C14.691 14.8461 16.2263 14.3464 17.8189 14.5594C19.8385 14.7724 21.152 16.4763 21.1848 18.4506C21.2013 20.6625 21.1602 23.4396 21.1848 25.6678C21.1848 26.4215 21.2094 27.2407 20.9714 27.9616C20.6512 29.0348 19.822 29.9441 18.763 30.3291C17.704 30.7059 16.4479 30.7059 15.4135 30.2636C13.9604 29.6492 13.1477 28.0845 13.123 26.5362C13.0738 25.7334 13.0082 24.9306 12.9424 24.1277C12.926 26.2413 12.4991 28.2975 14.1821 29.9441C14.9702 30.7387 16.0867 31.0828 17.1868 31.1073C16.4643 31.1483 15.824 31.0828 15.2658 30.837C13.4843 30.0506 12.8029 29.1003 12.4745 27.8551C12.4499 27.765 12.4088 27.6093 12.3924 27.552C12.376 27.5029 12.3268 27.4537 12.2693 27.4537C12.2118 27.4537 12.22 27.5029 12.22 27.5029C12.22 27.5029 12.2365 27.6667 12.2447 27.7322C12.6059 29.5673 13.5582 30.4684 14.8964 31.0336C15.4956 31.2876 16.1196 31.5333 16.8174 31.5661C17.1622 31.5825 17.5316 31.5661 17.8929 31.5415C18.2541 31.5088 18.5989 31.4596 18.9355 31.3777C19.6004 31.2138 20.208 30.9517 20.7006 30.5912C20.9304 30.4192 21.1439 30.2308 21.3491 30.026C21.3737 30.0096 21.3984 29.985 21.4312 29.9523C21.5297 29.854 21.62 29.7557 21.7103 29.6492C21.8006 29.5427 21.8909 29.428 21.9648 29.3215C21.9812 29.3952 21.9812 29.5755 21.7431 29.9031C20.8237 31.2057 19.6661 31.5415 18.3936 31.7136C17.1786 31.8774 16.2509 31.6972 16.095 31.73C16.0457 31.7382 16.0129 31.7546 15.9965 31.7709C15.5039 31.6808 15.0277 31.5252 14.5926 31.3121C14.1575 31.091 13.7553 30.8042 13.394 30.4602C12.647 29.7393 12.1133 28.8791 11.8096 27.9125C11.7767 27.8142 11.7439 27.765 11.7193 27.7896C11.7193 27.7486 11.7193 27.6995 11.7029 27.6586C11.6618 27.5439 11.629 27.4128 11.5962 27.2818C11.5797 27.2162 11.5715 27.1424 11.5551 27.077C11.5469 27.0032 11.5387 26.9295 11.5223 26.8476C11.5141 26.782 11.4977 26.7411 11.4812 26.7738C11.4648 26.8066 11.4566 26.8803 11.473 26.9459C11.5141 27.2654 11.5797 27.5439 11.6619 27.7978C11.6701 27.8224 11.6865 27.8388 11.6947 27.847C11.6947 27.9043 11.6947 28.0027 11.7275 28.0928C11.8671 28.6007 12.0723 29.0758 12.3432 29.51C12.6142 29.9441 12.9508 30.3537 13.3202 30.6896C14.0509 31.3777 14.9539 31.8119 15.9555 32.0249C14.9457 31.8939 13.9852 31.476 13.1724 30.7142C12.9261 30.4848 12.6963 30.2308 12.4911 29.9687C12.2858 29.7066 12.1052 29.4362 11.9492 29.1413C11.6373 28.5597 11.4238 27.9043 11.3417 27.1916C11.3417 27.1179 11.3171 27.0687 11.3007 27.077C11.2843 27.0851 11.2761 27.1507 11.2843 27.2244C11.3664 27.9617 11.5798 28.6498 11.9082 29.2479C12.0724 29.551 12.2612 29.8295 12.4746 30.0916C12.6963 30.3538 12.9262 30.5995 13.1725 30.8207C14.1659 31.7055 15.4137 32.1478 16.8668 32.2789C16.9817 32.2871 17.0967 32.2953 17.2116 32.3035C16.3004 32.3936 15.3891 32.3362 14.5189 32.0495C13.8949 31.7546 13.3367 31.3532 12.8605 30.8453C12.6224 30.5995 12.4008 30.321 12.2038 30.0343C12.0068 29.7476 11.8343 29.4445 11.6866 29.125C11.3992 28.4942 11.2186 27.8061 11.1447 27.1015C11.1283 26.9213 11.1119 26.7411 11.1037 26.5609C11.0955 26.3806 11.0791 26.2004 11.0791 26.012C11.0626 25.6352 11.0462 25.2665 11.038 24.8897C11.038 24.7422 11.0134 24.6276 10.9806 24.6276C10.9477 24.6276 10.9231 24.7504 10.9231 24.8979C10.9149 25.3239 10.8985 25.7417 10.8903 26.1676C10.8903 26.5854 10.8738 27.0115 10.9149 27.4211C10.9888 28.2484 11.2022 29.0758 11.5963 29.8213C11.5306 29.723 11.4649 29.682 11.3992 29.5838C11.3418 29.4773 11.235 29.3134 11.1858 29.2069C10.9559 28.699 10.6604 27.9945 10.5947 26.8149C10.5783 26.5445 10.5947 25.8809 10.5044 25.8564C10.4223 26.053 10.373 27.1261 10.5619 28.101C10.6604 28.6417 10.7999 29.166 11.038 29.6656C11.2679 30.1654 11.5716 30.6323 11.9082 31.0583C12.253 31.4843 12.6471 31.8775 13.0822 32.2134C12.5978 31.8693 12.1545 31.4597 11.7769 30.9927C11.3992 30.534 11.0626 30.0179 10.8163 29.4608C10.57 28.9038 10.3976 28.3139 10.2991 27.7077C10.2499 27.4046 10.2252 27.1015 10.2088 26.8066C10.2006 26.5117 10.1842 26.2086 10.1842 25.9219C10.1924 25.971 10.217 25.971 10.2252 25.9219C10.2334 25.8727 10.2334 25.7744 10.2252 25.7252C10.217 25.6679 10.1924 25.6761 10.1842 25.7252C10.1678 24.4964 10.1596 25.5368 10.176 24.2998C10.176 24.2261 10.176 24.1688 10.1596 24.1688C10.1431 24.1688 10.1349 24.2343 10.1349 24.3162C10.1267 25.3403 10.1185 24.4719 10.1267 25.1109C10.1267 25.627 10.1267 26.1185 10.1514 26.6592C10.1678 27.1835 10.2334 27.7405 10.3566 28.2648C10.6029 29.3298 11.1365 30.3374 11.8343 31.1402C12.1791 31.5498 12.5814 31.9185 13.0083 32.2298C13.4434 32.5411 13.9195 32.7868 14.4039 32.9753C14.6174 33.0654 14.8308 33.1473 15.0442 33.2128C15.0935 33.303 15.2166 33.4013 15.4136 33.4995C14.683 33.3275 13.9688 33.0408 13.3202 32.623C12.6717 32.2134 12.097 31.6891 11.6208 31.0911C11.2432 30.5914 10.9148 30.0261 10.6767 29.4363C10.4387 28.8465 10.2909 28.2157 10.2088 27.5931C10.1842 27.4128 10.1513 27.2654 10.1103 27.2654C10.0774 27.2654 10.0528 27.4129 10.0774 27.6095C10.1103 27.9208 10.1677 28.2321 10.2417 28.5434C10.1349 28.2976 10.0446 28.142 9.96253 28.1338C9.88865 28.1338 9.84761 28.2731 9.85582 28.5106C9.75732 28.1584 9.6834 27.7979 9.62595 27.4374L9.59311 27.1671L9.56848 26.9132C9.55207 26.7411 9.54386 26.5773 9.52744 26.4053C9.50282 26.0858 9.4864 25.7663 9.46177 25.4468C9.43715 25.1355 9.41252 24.8242 9.3961 24.5211C9.3961 24.4473 9.37148 24.4146 9.36327 24.4392C9.34685 24.4637 9.33864 24.5375 9.34685 24.6112C9.35506 25.0536 9.37148 25.5041 9.37969 25.9465C9.37969 26.1595 9.3961 26.4217 9.40432 26.651C9.40432 26.7739 9.41252 26.8968 9.42073 27.0115L9.43715 27.1917L9.46177 27.3883C9.57669 28.4123 9.88869 29.4527 10.4059 30.3702C10.7589 31.1321 11.2022 31.7956 11.7851 32.4265C12.3679 33.049 13.1068 33.5979 13.9442 33.9829C15.1756 34.5482 16.4727 34.7202 17.6631 34.6875C18.8535 34.6547 20.085 34.4089 21.2015 33.8682C22.0306 33.5406 22.8187 33.0245 23.4508 32.4019C23.3852 32.5083 23.3606 32.5821 23.3852 32.6149C22.8926 33.0572 22.3426 33.4423 21.7433 33.7454C20.5529 34.3598 19.2147 34.671 17.8602 34.753H17.4497C17.0145 34.753 16.5795 34.7284 16.1361 34.6711C15.2577 34.5646 14.3629 34.3188 13.5337 33.9256C12.6963 33.5324 11.9164 32.9671 11.2843 32.3118C10.9641 31.9841 10.685 31.64 10.4223 31.2714C10.1596 30.9027 9.92148 30.5013 9.72445 30.0835C9.3222 29.248 9.04307 28.4124 8.92811 27.5276C8.89528 27.2982 8.8132 26.52 8.77212 25.7663C8.73108 25.0372 8.64075 25.0454 8.6572 25.7253C8.6572 26.0694 8.63258 28.1666 9.29753 29.7395C9.65054 30.575 10.1185 31.5499 10.7178 32.2134C11.1857 32.7459 11.7276 33.2211 12.3104 33.6061C10.882 32.795 9.69158 31.5909 9.00199 30.0671C8.54225 29.1086 8.28775 28.0601 8.18925 27.0033C8.11537 25.9384 8.10716 24.8488 8.04967 23.7839C8.04967 25.2256 7.91009 26.6674 8.13996 28.0929C8.51759 30.6897 10.2088 33.0081 12.5321 34.2123C12.4746 34.2287 12.4172 34.2451 12.3597 34.2533C13.7389 34.9578 15.3315 35.3182 17.1212 35.3182C18.9109 35.3182 17.3347 35.3182 17.4414 35.3182H18.0242C18.3772 35.31 18.7467 35.2855 19.1079 35.2363C19.8386 35.1462 20.5775 34.9742 21.2999 34.6956C22.0141 34.4253 22.7365 34.0239 23.3605 33.5406C23.9926 33.0572 24.5345 32.4838 24.986 31.8858C25.0435 31.8039 25.0845 31.7301 25.0763 31.7056C25.0681 31.6892 25.0106 31.7383 24.9613 31.8203C24.518 32.4182 23.9762 32.9835 23.3523 33.475C22.7366 33.9665 22.0223 34.3597 21.3081 34.6383C20.5939 34.9168 19.8468 35.097 19.1244 35.1872C19.0176 35.2035 18.9109 35.2117 18.8042 35.2199C18.8862 35.2117 18.9602 35.1953 19.0422 35.1872C21.5954 34.8267 23.8613 33.516 25.2405 31.4106C25.2815 31.3942 25.4047 31.2631 25.495 31.083C25.8644 30.4194 26.1353 29.7067 26.3242 28.9776C26.5868 28.0191 26.6853 27.4047 26.6853 26.0203V19.5649L26.6442 19.581ZM23.4261 12.585C22.794 11.9624 22.0059 11.4545 21.1767 11.1187C21.0617 11.0613 20.9468 11.0122 20.8237 10.963C21.7842 11.3234 22.6544 11.8559 23.3932 12.5195C23.4015 12.5441 23.4179 12.5604 23.4261 12.585Z" fill="#090909"/>
<path d="M10.1841 26.1756C10.1759 26.2329 10.1841 26.3231 10.1841 26.3722C10.2005 26.4295 10.2169 26.4295 10.2251 26.3722C10.2333 26.3231 10.2333 26.2329 10.2251 26.1756C10.2169 26.1264 10.1923 26.1264 10.1841 26.1756Z" fill="#090909"/>
<path d="M12.1133 27.1176C12.1133 27.1258 12.1297 27.1421 12.1297 27.1504L12.1379 27.1585L12.1543 27.1749H12.2036L12.2118 27.1667C12.2118 27.1667 12.22 27.1585 12.2282 27.1504C12.2282 27.1504 12.2364 27.134 12.2446 27.1258C12.1297 26.2247 12.2036 25.4218 12.1461 25.43C12.0969 25.43 12.0312 26.1919 12.0722 26.9538V27.0521C12.0722 27.0602 12.0722 27.0766 12.0804 27.0848V27.0766C12.0804 27.0766 12.0804 27.0848 12.0886 27.093L12.1133 27.1176Z" fill="#090909"/>
<path d="M16.9405 9.75052C17.3017 9.72595 17.6548 9.72595 18.0078 9.73414C18.3608 9.74233 18.722 9.7669 19.0832 9.81605C19.8057 9.90615 20.5527 10.0864 21.2669 10.3649C21.9812 10.6352 22.6954 11.0367 23.3112 11.5282C23.9351 12.0115 24.4687 12.5849 24.9202 13.183C24.9777 13.2567 25.0269 13.3058 25.0352 13.2976C25.0352 13.2731 25.0023 13.1993 24.9449 13.1174C24.4933 12.5194 23.9515 11.9459 23.3194 11.4626C22.6954 10.9711 21.973 10.5779 21.2588 10.3075C20.5363 10.029 19.7892 9.85697 19.0668 9.76687C18.7056 9.71772 18.3443 9.69315 17.9831 9.68496C17.6301 9.67677 17.2771 9.68496 16.9159 9.70953C16.8256 9.70953 16.7517 9.7341 16.7599 9.75048C16.7599 9.76687 16.8502 9.77506 16.9405 9.76687V9.75052Z" fill="#090909"/>
<path d="M10.2251 18.8437C10.2415 18.7864 10.2415 18.6962 10.2251 18.6471C10.2169 18.5898 10.2005 18.5815 10.1841 18.6471C10.1758 18.6962 10.1676 18.7864 10.1841 18.8437C10.1923 18.8929 10.2169 18.8929 10.2251 18.8437Z" fill="#090909"/>
</svg>
